<?xml version="1.0" standalone="no"?>
<!DOCTYPE svg PUBLIC "-//W3C//DTD SVG 20010904//EN"
 "http://www.w3.org/TR/2001/REC-SVG-20010904/DTD/svg10.dtd">
<svg version="1.0" xmlns="http://www.w3.org/2000/svg"
 width="177.000000pt" height="145.000000pt" viewBox="0 0 177.000000 145.000000"
 preserveAspectRatio="xMidYMid meet">

<g transform="translate(0.000000,145.000000) scale(0.100000,-0.100000)"
fill="#7f00e0" stroke="none">
<path d="M1466 968 c-2 -7 -7 -26 -11 -43 -11 -50 -61 -147 -104 -200 -23 -27
-50 -64 -61 -81 -11 -17 -43 -43 -71 -58 -27 -15 -55 -36 -62 -47 -6 -10 -19
-19 -28 -19 -9 0 -28 -9 -42 -20 -14 -11 -34 -20 -45 -20 -11 0 -25 -7 -32
-14 -6 -8 -32 -23 -57 -32 -37 -14 -76 -17 -212 -16 -91 0 -188 2 -216 4 -44
3 -50 1 -50 -16 0 -60 425 -61 532 -1 25 14 51 25 58 25 7 0 23 8 36 18 13 11
36 22 51 26 15 3 32 15 38 25 5 11 30 29 55 41 25 12 53 33 63 47 9 14 43 54
74 89 31 35 64 86 74 112 10 26 23 54 29 62 20 26 37 77 33 102 -3 26 -45 39
-52 16z"/>
</g>
</svg>
